<svg id="darts" enable-background="new 0 0 300 300" height="512" viewBox="0 0 300 300" width="512" xmlns="http://www.w3.org/2000/svg"><g><path d="m63.698 47.721c2.209 0 4-1.791 4-4v-8c0-2.209-1.791-4-4-4s-4 1.791-4 4v8c0 2.209 1.791 4 4 4z"/><path d="m63.698 55.721c-2.209 0-4 1.791-4 4v8c0 2.209 1.791 4 4 4s4-1.791 4-4v-8c0-2.209-1.792-4-4-4z"/><path d="m47.698 55.721h8c2.209 0 4-1.791 4-4s-1.791-4-4-4h-8c-2.209 0-4 1.791-4 4s1.791 4 4 4z"/><path d="m71.698 55.721h8c2.209 0 4-1.791 4-4s-1.791-4-4-4h-8c-2.209 0-4 1.791-4 4s1.791 4 4 4z"/><path d="m245.698 239.721c-7.719 0-14 6.281-14 14s6.281 14 14 14 14-6.281 14-14-6.282-14-14-14zm0 20c-3.309 0-6-2.691-6-6s2.691-6 6-6 6 2.691 6 6-2.692 6-6 6z"/><path d="m256.026 209.835c-2.362 0-4.276 1.915-4.276 4.277s1.915 4.276 4.276 4.276 4.277-1.915 4.277-4.276-1.915-4.277-4.277-4.277z"/><path d="m124.026 58.388c2.362 0 4.277-1.915 4.277-4.276s-1.915-4.277-4.277-4.277-4.276 1.915-4.276 4.277 1.914 4.276 4.276 4.276z"/><path d="m216.619 110.39 11.616-1.82c.836-.131 1.611-.523 2.209-1.123l28.082-28.082c1.191-1.191 1.508-3 .795-4.525-.715-1.523-2.309-2.422-3.986-2.287l-18.1 1.647 1.647-18.1c.152-1.678-.762-3.271-2.287-3.986-1.525-.717-3.334-.396-4.525.795l-28.083 28.081c-.6.598-.992 1.373-1.123 2.209l-1.724 11.006c-17.671-14.728-39.859-22.881-62.963-22.881-54.301 0-98.479 44.176-98.479 98.477s44.178 98.479 98.479 98.479 98.479-44.178 98.479-98.479c-.001-21.43-7.14-42.388-20.037-59.411zm-52.656 59.411c0 14.219-11.568 25.787-25.787 25.787s-25.787-11.568-25.787-25.787 11.568-25.785 25.787-25.785c6.162 0 11.821 2.178 16.261 5.796-.324.828-.675 1.647-.959 2.487l-9.32 9.32c-1.682-1.232-3.738-1.983-5.983-1.983-5.614 0-10.166 4.551-10.166 10.165s4.551 10.166 10.166 10.166 10.165-4.551 10.165-10.166c0-.327-.066-.636-.096-.956l10.89-10.89c.541-.182 1.065-.418 1.601-.617 2.052 3.697 3.228 7.943 3.228 12.463zm-6.039-27.357c-5.562-4.026-12.372-6.429-19.748-6.429-18.631 0-33.787 15.156-33.787 33.785 0 18.631 15.156 33.787 33.787 33.787s33.787-15.156 33.787-33.787c0-5.698-1.431-11.064-3.933-15.778 5.117-2.766 9.933-6.226 14.156-10.45l7.004-7.004c6.465 9.888 9.902 21.298 9.902 33.232 0 33.59-27.326 60.918-60.916 60.918s-60.918-27.328-60.918-60.918 27.328-60.916 60.918-60.916c13.522 0 26.619 4.556 37.256 12.793l-7.57 7.57c-3.961 3.96-7.253 8.441-9.938 13.197zm18.606-4.528c-3.627 3.627-7.713 6.686-12.082 9.07 2.385-4.369 5.443-8.455 9.07-12.082l32.83-32.83c5.186-5.186 10.797-9.787 16.777-13.766-3.979 5.98-8.58 11.592-13.766 16.777zm49.179-37.047-2.25.353c4.754-5.9 8.881-12.204 12.359-18.859l9.238-.842zm4.203-34.492-.842 9.238c-6.654 3.479-12.958 7.605-18.859 12.359l.353-2.25zm-91.736 193.902c-49.891 0-90.479-40.588-90.479-90.479 0-49.889 40.588-90.477 90.479-90.477 21.404 0 41.957 7.608 58.255 21.354l-15.306 15.306c-12.173-9.72-27.312-15.099-42.949-15.099-38.002 0-68.918 30.916-68.918 68.916 0 38.002 30.916 68.918 68.918 68.918 38 0 68.916-30.916 68.916-68.918 0-14.064-4.222-27.488-12.143-38.991l15.426-15.426c11.925 15.773 18.28 34.504 18.28 54.418 0 49.89-40.588 90.478-90.479 90.478z"/></g></svg>